<?xml version="1.0" encoding="UTF-8"?>
<svg id="Capa_1" xmlns="http://www.w3.org/2000/svg" version="1.1" viewBox="0 0 286.48 289.02">
  <!-- Generator: Adobe Illustrator 29.8.3, SVG Export Plug-In . SVG Version: 2.1.1 Build 3)  -->
  <path d="M204.24,129.64c-.97,1.54.54,22.94-.15,27.33-.46,2.91-2.45,3.4-4.96,4.09l-110.43.18c-3.12.03-6.21-1.65-6.73-4.91-.71-4.49.91-24.97-.33-26.82l-35.63-16.74c-.55-.6-.91-1.31-1.15-2.09-1.09-3.52-.69-17.21-.35-21.47,2.67-32.87,25.93-64.4,55.29-78.53,59.1-28.45,130.26,7.56,140.99,72.17,1.59,9.58,2.49,20.55-.15,29.86l-36.41,16.92ZM134.82,12.08c-40.53,3.4-76.45,38.07-79.39,79-.17,2.4-.41,13.7.63,14.87l86.97,39.05,87.63-39.04c1.03-1,.73-7.19.66-9.1-1.82-51-45.84-89.02-96.5-84.78ZM126.55,150.22l-33.62-15.51v15.51h33.62ZM193.14,150.22v-15.51l-33.62,15.51h33.62Z"/>
  <g>
    <path d="M128.72,210.34h-15.19c-1.33-1.03-.84-2.84-1.47-4.35-3.67-8.8-22.82-8.75-24.58-1.01-1.24,5.47.27,7.08,4.87,9.08,13.46,5.86,36.79,4.5,38.89,23.82,3.52,32.39-54.82,35.15-61.82,6.87-.31-1.25-1.53-7.26.15-7.26h14.22l.85,1.08c.64,11.22,10.92,13.44,20.47,12.48,10.99-1.11,14.64-11.97,3.8-16.71-12.21-5.35-35.74-4.58-37.67-22.45-3.53-32.66,58.24-33.94,57.47-1.55Z"/>
    <path d="M61.47,210.34h-16.16c1.29-14.09-27.28-14.73-25.85-1.68.45,4.1,4.5,5.21,7.88,6.39,13.87,4.84,36.13,4.97,36.54,24.88.68,33.55-65.14,31.9-62.54-2.44h14.55c1.99,3.1,1.87,6.8,4.59,9.63,5.86,6.1,27.47,6.3,27.48-4.79,0-6.04-6.45-7.99-11.21-9.54-10.8-3.53-30.76-5.04-32.76-19.6-2.88-20.99,17.6-28.57,35-25.94,12.79,1.93,22.05,9.57,22.49,23.09Z"/>
    <polygon points="223.76 188.36 223.76 201.93 188.2 201.93 188.2 219.38 219.23 219.38 219.23 231.67 188.2 231.67 188.2 262.05 171.39 262.05 171.39 188.36 223.76 188.36"/>
    <polygon points="285.83 201.93 249.62 201.93 249.62 219.38 280.66 219.38 280.66 231.67 249.62 231.67 249.62 262.05 233.46 262.05 233.46 188.36 284.86 188.36 285.83 189.33 285.83 201.93"/>
    <rect x="141" y="188.36" width="16.16" height="73.69"/>
    <path d="M286.48,285.32v3.88H.05c-.02-1.39-.34-2.99.97-3.88h285.46Z"/>
  </g>
</svg>